# xmcd
#
# Track frame offsets:
#	150
#	11594
#	34583
#	51465
#	69976
#	89438
#	114712
#	135006
#	151292
#	168721
#
# Disc length: 2491 seconds
#
# Revision: 0
# Processed by: cddbd v1.5.2PL0 Copyright (c) Steve Scherf et al.
# Submitted via: EasyCDDAExtractor 2010.6.0.0
#
DISCID=7c09b90a
DTITLE=Various Artist - Winter Blues
DYEAR=1999
DGENRE=Blues
TTITLE0=01 - Good Ol' Shoe
TTITLE1=02 - Nu' Orlins
TTITLE2=03 - Texas
TTITLE3=04 - New Millennium
TTITLE4=05 - On The Tip Of My Tongue
TTITLE5=06 - White Man's Blues
TTITLE6=07 - They Only Come Out At Night
TTITLE7=08 - It's Only Money
TTITLE8=09 - Show Your Love
TTITLE9=10 - You Are My Song
EXTD=
EXTT0=
EXTT1=
EXTT2=
EXTT3=
EXTT4=
EXTT5=
EXTT6=
EXTT7=
EXTT8=
EXTT9=
PLAYORDER=
